<?xml version="1.0" encoding="UTF-8"?>
<svg version="1.1" xmlns="http://www.w3.org/2000/svg" width="99" height="99">
<path d="M0 0 C5.08772512 3.91951356 8.92802686 7.90785969 9.8203125 14.40234375 C10.54734375 14.51707031 11.274375 14.63179687 12.0234375 14.75 C21.29497904 16.91249642 28.40419272 23.90387108 33.8203125 31.40234375 C39.41938841 40.65626384 42.9335072 49.46123008 41.8203125 60.40234375 C40.06745628 67.49824364 36.81966428 73.12557812 30.8203125 77.40234375 C23.72818864 81.15620893 15.72214806 81.53978626 7.9921875 79.74609375 C1.3161526 77.58290926 -4.07691536 74.22031 -9.1796875 69.40234375 C-9.5096875 68.74234375 -9.8396875 68.08234375 -10.1796875 67.40234375 C-11.46746094 67.64017578 -11.46746094 67.64017578 -12.78125 67.8828125 C-20.35227316 69.04022179 -28.61536411 69.89935392 -35.40234375 65.78125 C-42.54879704 60.23685877 -45.85141656 54.34124819 -47.1796875 45.40234375 C-48.41094734 32.30936937 -45.26896918 20.51694451 -37.39453125 10.0234375 C-28.50758853 -0.70096455 -13.30438375 -7.82119631 0 0 Z M-32.1796875 10.40234375 C-40.2342285 21.16401264 -44.40765643 32.84920516 -43.1796875 46.40234375 C-41.90245964 52.85342685 -39.25363643 58.11929813 -34.1796875 62.40234375 C-30.99086498 63.88706986 -30.99086498 63.88706986 -28.1796875 64.40234375 C-28.52902344 63.67789063 -28.87835938 62.9534375 -29.23828125 62.20703125 C-33.84525406 52.4188454 -33.84525406 52.4188454 -34.1796875 47.40234375 C-34.2621875 46.22671875 -34.3446875 45.05109375 -34.4296875 43.83984375 C-34.1654173 31.20292347 -29.34707645 18.49115116 -20.6171875 9.27734375 C-15.59350473 4.75714811 -10.89642917 3.07401792 -4.1796875 2.40234375 C-13.50009785 -3.81126315 -25.5504757 3.00939787 -32.1796875 10.40234375 Z M-18.6796875 11.58984375 C-27.59509926 21.61968198 -32.36430755 32.86969377 -32.1796875 46.40234375 C-31.58625567 51.70313349 -30.30199628 56.00272683 -27.1796875 60.40234375 C-23.44480973 59.90436005 -21.36731115 59.52742619 -18.1796875 57.40234375 C-18.61867952 54.32939958 -19.12714452 51.54547807 -20.19921875 48.625 C-22.16273206 42.1712212 -22.52956418 33.75286219 -19.9296875 27.40234375 C-19.3521875 26.41234375 -18.7746875 25.42234375 -18.1796875 24.40234375 C-17.6640625 23.37109375 -17.1484375 22.33984375 -16.6171875 21.27734375 C-13.17425837 17.21645298 -9.00750512 15.48457043 -4.1796875 13.40234375 C-5.4996875 10.76234375 -6.8196875 8.12234375 -8.1796875 5.40234375 C-12.33896868 5.40234375 -15.68302842 8.96776705 -18.6796875 11.58984375 Z M-3.1796875 5.40234375 C-2.8909375 6.10617188 -2.6021875 6.81 -2.3046875 7.53515625 C2.81297318 21.14671208 1.61676593 33.1893015 -4.05859375 46.45703125 C-4.40161725 48.69636892 -4.40161725 48.69636892 -2.2421875 51.15234375 C-1.5615625 51.89484375 -0.8809375 52.63734375 -0.1796875 53.40234375 C6.33051939 41.16524362 11.17602443 30.30969295 7.7578125 16.21484375 C6.12716813 11.18963681 3.35500434 8.09037795 -1.1796875 5.40234375 C-1.8396875 5.40234375 -2.4996875 5.40234375 -3.1796875 5.40234375 Z M-5.7421875 18.90234375 C-6.2165625 19.39734375 -6.6909375 19.89234375 -7.1796875 20.40234375 C-5.5296875 20.40234375 -3.8796875 20.40234375 -2.1796875 20.40234375 C-2.5096875 19.41234375 -2.8396875 18.42234375 -3.1796875 17.40234375 C-4.42045052 17.28692178 -4.42045052 17.28692178 -5.7421875 18.90234375 Z M10.8203125 18.40234375 C10.70001275 21.28953781 10.72261448 22.77784757 11.8203125 25.40234375 C14.13815126 27.58748181 16.62155455 29.40801464 19.1796875 31.3046875 C29.49961546 39.50261844 32.97110617 50.0101025 34.5234375 62.65625 C34.62140625 63.56246094 34.719375 64.46867187 34.8203125 65.40234375 C37.87171397 62.61628154 38.72158178 60.58711243 39.0703125 56.40234375 C38.80219823 44.8003081 33.22129995 34.81425725 25.3828125 26.52734375 C21.31090648 22.71280425 16.57771837 18.40234375 10.8203125 18.40234375 Z M-13.1796875 21.40234375 C-17.98380401 27.75617526 -19.83836171 33.68923235 -18.7734375 41.6640625 C-15.94773026 54.69577811 -8.66956371 64.78210691 2.4375 72 C8.92036383 75.81532478 15.33372156 78.31427749 22.9453125 76.71484375 C26.58052692 75.68934552 29.04831261 74.00109364 31.8203125 71.40234375 C31.09328125 71.38816406 30.36625 71.37398437 29.6171875 71.359375 C17.76303189 70.79706249 8.65640972 67.22823688 0.078125 58.92578125 C-10.4085838 47.205342 -12.72280916 36.67009718 -12.1796875 21.40234375 C-12.5096875 21.40234375 -12.8396875 21.40234375 -13.1796875 21.40234375 Z M-10.1796875 25.40234375 C-10.5337794 31.92025767 -10.21870602 36.57755824 -7.1796875 42.40234375 C-2.44025095 36.80119147 -1.93646207 31.45588124 -2.1796875 24.40234375 C-6.32062448 24.19263816 -6.32062448 24.19263816 -10.1796875 25.40234375 Z M11.8203125 30.40234375 C11.43359375 31.63210937 11.046875 32.861875 10.6484375 34.12890625 C10.12288403 35.76187595 9.59681499 37.39467978 9.0703125 39.02734375 C8.81765625 39.83558594 8.565 40.64382812 8.3046875 41.4765625 C6.71180073 46.37468931 4.89907135 50.26609816 1.8203125 54.40234375 C4.26378755 60.22318745 9.58219322 63.86140845 15.16796875 66.51953125 C19.73696205 68.16530928 23.93547317 69.00048734 28.8203125 68.40234375 C31.34999118 64.60782573 31.38533796 61.78491305 30.8203125 57.40234375 C28.24015985 46.60816083 21.91012679 36.83172459 12.8203125 30.40234375 C12.4903125 30.40234375 12.1603125 30.40234375 11.8203125 30.40234375 Z M-16.1796875 60.40234375 C-17.8296875 61.72234375 -19.4796875 63.04234375 -21.1796875 64.40234375 C-18.57386379 65.33299508 -17.53770526 65.55151782 -14.9296875 64.46484375 C-14.3521875 64.11421875 -13.7746875 63.76359375 -13.1796875 63.40234375 C-14.1696875 62.41234375 -15.1596875 61.42234375 -16.1796875 60.40234375 Z " fill="#000000" transform="translate(52.1796875,10.59765625)"/>
</svg>
